<svg width="12" height="13" viewBox="0 0 12 13" fill="none" xmlns="http://www.w3.org/2000/svg">
<path d="M11.7069 5.29266L6.70688 0.292662C6.51936 0.105267 6.26511 0 6.00001 0C5.7349 0 5.48065 0.105267 5.29313 0.292662L0.293131 5.29266C0.199822 5.38528 0.125855 5.49552 0.0755335 5.61698C0.0252116 5.73844 -0.00046166 5.86869 6.28343e-06 6.00016V12.0002C6.28343e-06 12.1328 0.0526848 12.2599 0.146453 12.3537C0.240221 12.4475 0.367398 12.5002 0.500006 12.5002H4.50001C4.63261 12.5002 4.75979 12.4475 4.85356 12.3537C4.94733 12.2599 5.00001 12.1328 5.00001 12.0002V8.50016H7.00001V12.0002C7.00001 12.1328 7.05268 12.2599 7.14645 12.3537C7.24022 12.4475 7.3674 12.5002 7.50001 12.5002H11.5C11.6326 12.5002 11.7598 12.4475 11.8536 12.3537C11.9473 12.2599 12 12.1328 12 12.0002V6.00016C12.0005 5.86869 11.9748 5.73844 11.9245 5.61698C11.8742 5.49552 11.8002 5.38528 11.7069 5.29266ZM11 11.5002H8.00001V8.00016C8.00001 7.86755 7.94733 7.74038 7.85356 7.64661C7.75979 7.55284 7.63261 7.50016 7.50001 7.50016H4.50001C4.3674 7.50016 4.24022 7.55284 4.14645 7.64661C4.05268 7.74038 4.00001 7.86755 4.00001 8.00016V11.5002H1.00001V6.00016L6.00001 1.00016L11 6.00016V11.5002Z" fill="#ACE5FF"/>
</svg>
